<svg version="1.1" xmlns="http://www.w3.org/2000/svg" xmlns:xlink="http://www.w3.org/1999/xlink" width="193.32534" height="202.82193" viewBox="0,0,193.32534,202.82193"><g transform="translate(-144.09354,-39.36031)"><g data-paper-data="{&quot;isPaintingLayer&quot;:true}" fill="#ffffff" fill-rule="nonzero" stroke="#000000" stroke-width="0" stroke-linecap="butt" stroke-linejoin="miter" stroke-miterlimit="10" stroke-dasharray="" stroke-dashoffset="0" style="mix-blend-mode: normal"><path d="M148.64373,228.79133c0,-9.22049 -3.07387,-112.55117 1.21505,-118.22047c4.73122,-6.25396 35.22255,-4.0092 51.53857,-3.97775c5.45042,0.0105 11.94025,0.26613 17.71376,0.30991c3.37252,0.02558 2.64402,5.2816 -0.1731,9.76586c-2.00559,3.19248 -7.04333,6.66693 -8.93807,6.59951c-6.28997,-0.22384 -13.34507,-0.14227 -20.39856,0.38652c-3.87903,0.2908 -8.01841,-0.58414 -11.35986,0.57804c-4.25064,1.4784 -7.36235,4.2932 -8.66339,5.57344c-1.05605,1.03916 -3.11548,4.38231 -3.77593,7.71013c-0.99436,5.01037 0.66887,18.18165 -0.26004,26.79475c-0.46417,4.30382 6.84001,-5.5273 14.64042,-7.50547c5.76198,-1.46123 13.42519,-1.57102 20.4325,-1.48981c6.87861,0.07971 8.19438,-0.04394 8.20187,1.18756c0.00123,0.20228 3.24567,1.62908 3.88903,3.87455c1.01464,3.54131 -0.71528,8.49803 -3.45615,9.16852c-4.42479,1.08242 -14.20283,1.47776 -19.57562,2.45195c-4.44328,0.80565 -10.46676,3.59743 -12.49755,4.97123c-9.24461,6.25389 -10.96178,20.90835 -10.96178,20.90835c0,0 0.57592,29.94943 0.57592,31.92424c0,2.53373 -4.14403,2.08256 -6.56756,2.08256c-2.45357,0 -5.28295,0 -6.73434,0c-1.81279,0 -4.8452,0.14426 -4.8452,-3.09362z"/><path d="M223.64955,218.74145c3.21511,-4.93754 3.00082,-4.7216 3.69889,-7.44116c0.30153,-1.17472 1.6547,-13.96019 2.21985,-30.89251c0.93541,-28.02565 1.16427,-65.95949 1.5858,-70.71648c0.03295,-0.37189 4.96978,-1.71421 7.32364,-1.69977c3.1882,0.01957 4.42478,1.48309 8.3813,1.44517c5.67944,-0.05443 1.95436,22.21774 2.59223,26.05942c0.53061,3.19572 -1.71558,18.27408 0.00317,20.72178c1.06676,1.51919 6.48383,-8.75623 6.48383,-8.75623c0,0 29.03132,-36.02798 32.00017,-39.69665c1.40551,-1.73681 16.76938,-1.79067 17.45961,1.2442c0.49613,2.18139 -3.03365,3.68394 -4.88746,6.35572c-8.07461,11.63738 -26.47272,39.66265 -29.59246,40.42582c-2.60914,0.63826 15.26494,20.65685 30.3974,39.36955c6.84719,8.4672 18.44456,22.64247 18.04508,24.18953c-0.24791,0.9601 12.59408,0.72725 12.88168,3.11568c0.22017,1.82842 0.68779,5.1672 -2.49899,7.6302c-3.24572,2.50856 -10.1576,4.12423 -11.12263,4.04294c-1.86899,-0.15745 -8.41766,-1.49293 -9.06533,-1.0548c-1.12002,0.75769 -10.03808,-7.35814 -18.79317,-18.73547c-14.77917,-19.20568 -32.18224,-46.16111 -33.31802,-44.16955c-2.94782,5.16896 -8.97346,10.95287 -8.97346,10.95287c0,0 3.07381,21.00215 -5.26157,37.30653c-4.45849,8.721 -12.37645,14.45048 -23.46321,18.40376c-11.08676,3.95328 -18.46667,4.85112 -31.23157,5.30262c-12.7649,0.4515 -23.05567,-3.30904 -25.13137,-3.30904c-2.10143,0 8.72588,-1.0714 13.85198,-3.58642c2.81065,-1.37899 15.94389,-0.54983 27.3878,-4.10441c9.42759,-2.92829 17.57456,-10.17303 19.02682,-12.4033z"/><path d="M312.37281,197.91725c0,-12.87753 0,-55.10136 0,-55.10136h18.78456v70.129c0,0 0.25302,0.41744 -2.50461,0.41744c-3.37739,0 -16.27995,-6.09425 -16.27995,-15.44508z"/><path d="M309.87125,121.31801c0,-6.57047 5.32641,-11.89688 11.89688,-11.89688c6.57047,0 11.89688,5.32641 11.89688,11.89688c0,6.57047 -5.32641,11.89689 -11.89688,11.89689c-6.57047,0 -11.89688,-5.32642 -11.89688,-11.89689z"/><path d="M144.56411,76.09455l14.61021,-36.73424h161.54718l16.69738,38.40398c0,0 -1.18776,15.7053 -8.31487,15.42373c-3.16596,-0.12508 -12.58785,4.65372 -19.62744,0.80896c-8.38711,-4.58072 -14.26814,-17.90029 -14.26814,-17.90029l-3.35074,-0.13238c0,0 0.19032,8.67989 -2.86152,13.54493c-2.58847,4.12636 -8.21214,4.57127 -10.89971,4.46509c-2.22193,-0.08778 -8.13546,-0.13389 -12.02583,-4.60485c-4.43357,-5.09522 -6.73841,-14.69013 -6.73841,-14.69013l-3.35135,-0.11529c0,0 0.61698,8.8383 -3.16985,14.09796c-3.50945,4.8744 -11.33141,6.20392 -13.96772,6.10032c-2.52231,-0.09912 -9.07838,-1.68366 -12.08622,-7.01012c-3.01898,-5.3462 -2.48508,-14.4342 -2.48508,-14.4342l-3.7675,-0.14805c0,0 -0.54191,8.7556 -4.63987,14.33202c-3.79109,5.15884 -11.04683,7.17557 -13.68255,7.072c-2.26591,-0.08904 -9.53598,-0.88692 -12.03792,-6.59185c-2.43351,-5.5489 -0.13091,-16.01038 -0.13091,-16.01038l-2.80719,-0.11031c0,0 -1.58996,12.70421 -8.20744,18.60492c-6.40921,5.71501 -17.81895,4.63424 -19.8253,4.52837c-19.15331,-1.01068 -14.60921,-18.9002 -14.60921,-18.9002zM310.4585,67.23455c-17.49998,0.02245 -34.99997,0.04492 -52.49995,0.06737c-17.49999,0.02245 -34.99998,0.04492 -52.49996,0.06737c-9.63727,0.01237 -19.28082,0.10092 -28.91366,0.1239c-3.42552,0.00817 -5.92906,-0.88822 -8.61744,-0.07346c-0.34001,-0.01034 -0.6803,-0.0198 -1.02062,-0.02771l-0.00116,-0.00324l-0.00845,0.00302c-2.39639,-0.05553 -4.7947,-0.03445 -7.113,0.29119c0,0 -1.23743,0.17678 -1.06066,1.41421c0.17677,1.23744 1.41421,1.06066 1.41421,1.06066c1.63805,-0.23852 3.32487,-0.31 5.02379,-0.30682c0.19505,0.21389 0.46339,0.35981 0.7653,0.39803l1.22245,0.17463l0.01064,-0.07448l0.16613,0.08705c0.93213,-0.12516 1.8674,-0.33327 2.80726,-0.44853c0.94647,0.03418 1.88549,0.06352 2.81059,0.0717l2.49804,0.02209c0.0043,0.00005 0.00859,0.00006 0.0129,0.00006c0.18254,0 0.35593,-0.03912 0.51226,-0.10944c0.18953,0.01314 0.38029,0.02063 0.57256,0.02103c9.63399,0.02031 19.28336,-0.11153 28.92205,-0.1239c17.49999,-0.02245 34.99997,-0.04492 52.49996,-0.06737c17.49998,-0.02245 34.99998,-0.04492 52.49996,-0.06737c3.02852,-0.00388 6.15007,0.35345 9.15277,0.16727l0.88935,-0.45197c0,0 0.88389,-0.88388 0,-1.76776c-0.53267,-0.53267 -1.06534,-0.42331 -1.40456,-0.2523c-2.82847,0.15957 -5.7954,-0.19887 -8.64077,-0.19522z"/></g></g></svg>